<svg width="80" height="80" viewBox="0 0 80 80" fill="none" xmlns="http://www.w3.org/2000/svg">
<path d="M29.0259 60.4859L28.4154 53.4078C28.3329 52.3353 27.376 51.3784 26.3035 51.2959L19.2254 50.6854C17.8889 50.2399 17.2455 48.7055 17.8724 47.4186L19.3409 44.4982C19.6873 43.7888 20.6443 43.1948 21.4363 43.1948L28.9434 43.1783C29.4878 43.1948 30.2303 42.8813 30.6098 42.5018L35.312 37.7996C36.005 37.1066 35.8235 36.2652 34.9161 35.8857L23.3172 31.2824C21.5023 30.5564 21.1393 28.8405 22.5252 27.4546L24.6536 25.3262C25.759 24.2208 27.8544 23.7753 29.3064 24.3693L42.5057 29.616C42.8852 29.7645 43.4626 29.649 43.7596 29.352L48.7094 24.4023C50.2603 22.8513 53.2301 22.1584 55.3255 22.8348C56.068 23.0823 56.6455 23.6598 56.8929 24.4023C57.5694 26.4977 56.8599 29.484 55.309 31.0349L50.3593 35.9847C50.0623 36.2817 49.9468 36.8591 50.0953 37.2386L55.3255 50.4214C55.936 51.8569 55.4905 53.9523 54.3851 55.0577L52.2567 57.1861C50.8708 58.572 49.1548 58.209 48.4289 56.3941L43.8256 44.7952C43.4791 43.8878 42.6047 43.7063 41.9117 44.3992L37.2095 49.1015C36.83 49.481 36.5165 50.2234 36.5165 50.7514L36.5 58.2585C36.5 59.0505 35.9225 59.991 35.1966 60.3539L32.2762 61.8224C31.0223 62.4823 29.4713 61.8554 29.0259 60.4859Z" stroke="#63A845" stroke-width="1.5" stroke-linecap="round" stroke-linejoin="round"/>
</svg>
