<svg width="78" height="77" viewBox="0 0 78 77" fill="none" xmlns="http://www.w3.org/2000/svg">
<path d="M28.3677 18.2622L50.7542 15.0368C51.6248 14.9113 52.6806 15.4334 53.1123 16.181L56.9856 22.8898C57.6273 24.0012 57.2429 25.4356 56.1315 26.0772L19.7585 47.0772C18.6471 47.7189 17.2127 47.3346 16.5711 46.2232L12.6977 39.5144C12.2661 38.7667 12.3419 37.5913 12.8858 36.9001L26.8724 19.1255C27.1832 18.7305 27.8702 18.3339 28.3677 18.2622Z" stroke="#63A845" stroke-width="1.5" stroke-miterlimit="10" stroke-linecap="round" stroke-linejoin="round"/>
<path d="M70.9855 47.1385L30.571 70.4719L27.071 64.4097C26.4293 63.2983 26.8136 61.864 27.925 61.2223L64.2981 40.2223C65.4095 39.5806 66.8438 39.965 67.4855 41.0764L70.9855 47.1385Z" stroke="#63A845" stroke-width="1.5" stroke-miterlimit="10" stroke-linecap="round" stroke-linejoin="round"/>
<path d="M29.946 60.0556L21.7793 45.9106" stroke="#63A845" stroke-width="1.5" stroke-miterlimit="10" stroke-linecap="round" stroke-linejoin="round"/>
<path d="M38.029 55.389L29.8623 41.2439" stroke="#63A845" stroke-width="1.5" stroke-miterlimit="10" stroke-linecap="round" stroke-linejoin="round"/>
<path d="M46.112 50.7223L37.9453 36.5772" stroke="#63A845" stroke-width="1.5" stroke-miterlimit="10" stroke-linecap="round" stroke-linejoin="round"/>
<path d="M54.195 46.0556L46.0283 31.9106" stroke="#63A845" stroke-width="1.5" stroke-miterlimit="10" stroke-linecap="round" stroke-linejoin="round"/>
<path d="M62.278 41.389L54.1113 27.2439" stroke="#63A845" stroke-width="1.5" stroke-miterlimit="10" stroke-linecap="round" stroke-linejoin="round"/>
<path d="M28.5508 71.6385L73.0068 45.9719" stroke="#63A845" stroke-width="1.5" stroke-miterlimit="10" stroke-linecap="round" stroke-linejoin="round"/>
<path d="M35.0291 31.5254C36.7032 30.5589 37.2767 28.4183 36.3102 26.7443C35.3437 25.0703 33.2032 24.4967 31.5291 25.4632C29.8551 26.4297 29.2815 28.5703 30.248 30.2443C31.2145 31.9183 33.3551 32.4919 35.0291 31.5254Z" stroke="#63A845" stroke-width="1.5" stroke-miterlimit="10" stroke-linecap="round" stroke-linejoin="round"/>
</svg>
