<svg width="101" height="102" viewBox="0 0 101 102" fill="none" xmlns="http://www.w3.org/2000/svg">
<path d="M35.2051 51.3908L45.3298 61.5575L65.6212 41.2241" stroke="#63A845" stroke-width="1.5" stroke-linecap="round" stroke-linejoin="round"/>
<path d="M45.1616 11.2702C48.0604 8.7915 52.8076 8.7915 55.7484 11.2702L62.3862 16.9837C63.6465 18.076 65.9991 18.9582 67.6796 18.9582H74.8215C79.2746 18.9582 82.9296 22.6132 82.9296 27.0663V34.2082C82.9296 35.8467 83.8119 38.2413 84.9041 39.5016L90.6177 46.1394C93.0963 49.0382 93.0963 53.7854 90.6177 56.7262L84.9041 63.364C83.8119 64.6243 82.9296 66.9769 82.9296 68.6574V75.7993C82.9296 80.2525 79.2746 83.9074 74.8215 83.9074H67.6796C66.0411 83.9074 63.6465 84.7897 62.3862 85.882L55.7484 91.5955C52.8496 94.0741 48.1024 94.0741 45.1616 91.5955L38.5238 85.882C37.2635 84.7897 34.9109 83.9074 33.2304 83.9074H25.9625C21.5093 83.9074 17.8544 80.2525 17.8544 75.7993V68.6154C17.8544 66.9769 16.9721 64.6243 15.9218 63.364L10.2503 56.6842C7.81369 53.7854 7.81369 49.0802 10.2503 46.1814L15.9218 39.5016C16.9721 38.2413 17.8544 35.8887 17.8544 34.2503V27.0243C17.8544 22.5712 21.5093 18.9162 25.9625 18.9162H33.2304C34.8689 18.9162 37.2635 18.034 38.5238 16.9417L45.1616 11.2702Z" stroke="#63A845" stroke-width="1.5" stroke-linecap="round" stroke-linejoin="round"/>
</svg>
