<svg width="108" height="109" viewBox="0 0 108 109" fill="none" xmlns="http://www.w3.org/2000/svg">
<path d="M56.6234 50.7882L35.373 56.4823" stroke="#63A845" stroke-width="1.5" stroke-linecap="round" stroke-linejoin="round"/>
<path d="M17.6645 61.2273L13.2801 44.8645C11.3442 37.6394 15.6222 30.2297 22.8473 28.2937L42.7518 22.9603C49.9769 21.0244 57.026 23.9565 58.962 31.1816" stroke="#63A845" stroke-width="1.5" stroke-linecap="round" stroke-linejoin="round"/>
<path d="M73.4873 50.2555C72.1719 52.43 72.0242 55.2786 73.4538 57.7805C75.2218 60.8371 79.0402 62.0537 82.4402 61.1426L85.734 60.26L87.1101 65.3956C89.2074 73.2228 84.5664 81.2612 76.7392 83.3585L41.3219 92.8486C33.4947 94.9459 25.4563 90.3049 23.359 82.4777L16.7159 57.6856C14.6186 49.8583 19.2596 41.8199 27.0868 39.7226L62.5041 30.2326C70.2959 28.1448 78.3792 32.8117 80.467 40.6035L81.843 45.7388L78.0179 46.7638C76.0346 47.2952 74.4371 48.5585 73.4873 50.2555Z" stroke="#63A845" stroke-width="1.5" stroke-linecap="round" stroke-linejoin="round"/>
<path d="M89.8947 47.4535L91.8496 54.7494C92.3811 56.7328 91.1883 58.7986 89.1696 59.3395L82.334 61.1711C78.509 62.196 74.2531 60.3376 72.9094 56.5979C72.099 54.4236 72.389 52.1062 73.4874 50.2555C74.4373 48.5585 76.0347 47.2952 78.0181 46.7638L85.2786 44.8183C87.2974 44.2774 89.3633 45.4701 89.8947 47.4535Z" stroke="#63A845" stroke-width="1.5" stroke-linecap="round" stroke-linejoin="round"/>
</svg>
