<svg width="367" height="352" viewBox="0 0 367 352" fill="none" xmlns="http://www.w3.org/2000/svg">
<path d="M182 5V92.6906C182 105.945 192.745 116.691 206 116.691H219.362C232.617 116.691 243.362 127.436 243.362 140.691V213.598C243.362 226.853 254.107 237.598 267.362 237.598H342C355.255 237.598 366 248.344 366 261.598V352" stroke="#121F0D"/>
<path d="M339 237.6H268C254.745 237.6 244 248.345 244 261.6V351.6" stroke="#121F0D"/>
<path d="M27 237.6H98C111.255 237.6 122 248.345 122 261.6V351.6" stroke="#121F0D"/>
<path d="M182 0V92.6906C182 105.945 171.255 116.691 158 116.691H146.027C132.772 116.691 122.027 127.436 122.027 140.691V213.598C122.027 226.853 111.282 237.598 98.0269 237.598H25C11.7452 237.598 1 248.344 1 261.598V352" stroke="#121F0D"/>
</svg>
